<?xml version="1.0" standalone="no"?>
<!DOCTYPE svg PUBLIC "-//W3C//DTD SVG 20010904//EN"
 "http://www.w3.org/TR/2001/REC-SVG-20010904/DTD/svg10.dtd">
<svg version="1.0" xmlns="http://www.w3.org/2000/svg"
 width="400.000000pt" height="400.000000pt" viewBox="0 0 400.000000 400.000000"
 preserveAspectRatio="xMidYMid meet">

<g transform="translate(0.000000,400.000000) scale(0.100000,-0.100000)"
fill="#000000" stroke="none">
<path d="M986 2809 c-33 -26 -35 -75 -4 -115 13 -16 170 -201 350 -411 181
-210 328 -386 328 -392 0 -6 -48 -66 -107 -133 -194 -221 -226 -258 -410 -477
-198 -234 -209 -254 -160 -299 23 -22 27 -22 498 -24 383 -2 481 0 500 10 13
8 40 35 60 60 20 26 130 164 244 307 342 431 415 526 415 549 0 31 -19 58
-221 313 -101 127 -238 300 -304 385 -66 84 -141 174 -166 201 l-46 47 -475 0
c-466 0 -476 0 -502 -21z"/>
<path d="M2225 2805 c-29 -29 -32 -69 -7 -106 15 -22 224 -283 547 -683 53
-65 94 -123 92 -130 -3 -6 -148 -189 -322 -406 -174 -217 -321 -403 -327 -413
-24 -45 21 -107 76 -107 41 0 30 -12 302 330 103 129 247 310 320 403 107 133
134 173 134 198 0 24 -18 53 -73 123 -40 50 -191 240 -336 421 -145 182 -278
345 -297 363 -41 39 -76 41 -109 7z"/>
</g>
</svg>
